<svg width="20" height="20" viewBox="0 0 20 20" fill="none" xmlns="http://www.w3.org/2000/svg">
<path fill-rule="evenodd" clip-rule="evenodd" d="M9.99791 19.8868C15.2412 19.8868 19.4548 15.4817 19.4548 10C19.4548 4.51838 15.2412 0.113281 9.99791 0.113281C4.75459 0.113281 0.541016 4.51838 0.541016 10C0.541016 15.4817 4.75459 19.8868 9.99791 19.8868ZM12.5986 11.5621C12.5986 10.1231 11.7716 9.62873 10.1166 9.4244C8.93453 9.25743 8.69811 8.93007 8.69811 8.35004C8.69811 7.77551 9.09425 7.40531 9.88022 7.40531C10.5895 7.40531 10.9856 7.65138 11.18 8.26985C11.222 8.39289 11.3397 8.47308 11.4585 8.47308H12.0847C12.121 8.47427 12.1572 8.46776 12.191 8.45395C12.2248 8.44015 12.2556 8.41932 12.2815 8.39274C12.3075 8.36615 12.328 8.33436 12.3418 8.29927C12.3557 8.26418 12.3626 8.22652 12.3621 8.18856V8.14572C12.2024 7.23723 11.4931 6.37269 10.5895 6.2925V5.38402C10.5895 5.21704 10.4708 5.09291 10.2764 5.05666H9.75623C9.59652 5.05666 9.44836 5.17969 9.40738 5.38402V6.2925C8.22527 6.45838 7.43929 7.40421 7.43929 8.43573C7.43929 9.79571 8.22527 10.3274 9.88022 10.5372C10.9856 10.7404 11.3408 10.9876 11.3408 11.6489C11.3408 12.3047 10.7839 12.7617 10.0399 12.7617C9.01019 12.7617 8.65713 12.3047 8.53839 11.6863C8.50267 11.5259 8.38498 11.4391 8.26625 11.4391H7.59271C7.5564 11.4386 7.52037 11.4459 7.48681 11.4603C7.45324 11.4748 7.42283 11.4963 7.3974 11.5234C7.37197 11.5505 7.35206 11.5827 7.33885 11.618C7.32564 11.6534 7.31942 11.6912 7.32056 11.7291V11.7731C7.47397 12.7991 8.10653 13.5032 9.40738 13.7065V14.6215C9.40738 14.7885 9.52506 14.8995 9.72051 14.9434H10.2879C10.4413 14.9434 10.5485 14.8314 10.5895 14.6215V13.7065C11.7716 13.5032 12.5986 12.6749 12.5986 11.5621ZM6.01866 14.6413C6.59042 15.1885 7.25997 15.6123 7.98884 15.8881C8.10653 15.9749 8.22527 16.1353 8.22527 16.2594V16.8395C8.22527 16.9197 8.22527 16.9636 8.18323 16.9998C8.14856 17.1668 7.98884 17.247 7.82913 17.1668C6.39549 16.689 5.14434 15.7469 4.25652 14.4767C3.36871 13.2066 2.89021 11.6742 2.89021 10.1011C2.89021 8.52796 3.36871 6.99558 4.25652 5.72544C5.14434 4.45531 6.39549 3.51322 7.82913 3.03537C7.87116 2.99802 7.94681 2.99802 7.98884 2.99802C8.14856 3.03537 8.22527 3.1595 8.22527 3.32538V3.90101C8.22527 4.10973 8.14856 4.23386 7.98884 4.31405C7.18293 4.61818 6.45101 5.10422 5.84516 5.73762C5.2393 6.37101 4.77439 7.13619 4.48349 7.97874C4.07687 9.12293 4.00564 10.3679 4.27889 11.5546C4.55214 12.7413 5.15748 13.8159 6.01761 14.6413M11.8115 3.20234C11.8473 3.03536 12.007 2.95517 12.1667 3.03537C13.2502 3.40309 14.234 4.03635 15.0359 4.88232C15.8377 5.72829 16.4345 6.76246 16.7764 7.89855C17.9585 11.8093 15.9074 15.9749 12.1667 17.2108C12.1247 17.247 12.048 17.247 12.007 17.247C11.8473 17.2108 11.7705 17.0866 11.7705 16.9197V16.3451C11.7705 16.1353 11.8473 16.0123 12.007 15.931C12.8126 15.6268 13.5442 15.1409 14.1499 14.5077C14.7555 13.8745 15.2204 13.1096 15.5113 12.2674C15.7817 11.5078 15.9054 10.6997 15.8754 9.88987C15.8453 9.08 15.6621 8.28438 15.3363 7.54896C15.0104 6.81355 14.5485 6.15291 13.977 5.60521C13.4056 5.05752 12.736 4.63361 12.007 4.35799C11.8882 4.27121 11.7705 4.11082 11.7705 3.94385V3.36932C11.7705 3.28253 11.7705 3.24518 11.8126 3.20234" fill="#2775CA"/>
</svg>
