<svg width="42" height="42" viewBox="0 0 42 42" fill="none" xmlns="http://www.w3.org/2000/svg">
<path d="M38.5914 16.4719C37.9086 15.7711 37.2078 15.0344 36.9383 14.4055C36.6688 13.7766 36.6867 12.8422 36.6688 11.8898C36.6508 10.1469 36.6148 8.15234 35.2313 6.76875C33.8477 5.38516 31.8531 5.34922 30.1102 5.33125C29.1578 5.31328 28.1875 5.29531 27.5945 5.06172C27.0016 4.82812 26.2289 4.09141 25.5281 3.40859C24.2883 2.22266 22.8687 0.875 21 0.875C19.1313 0.875 17.7117 2.22266 16.4719 3.40859C15.7711 4.09141 15.0344 4.79219 14.4055 5.06172C13.7766 5.33125 12.8422 5.31328 11.8898 5.33125C10.1469 5.34922 8.15234 5.38516 6.76875 6.76875C5.38516 8.15234 5.34922 10.1469 5.33125 11.8898C5.31328 12.8422 5.29531 13.8125 5.06172 14.4055C4.82812 14.9984 4.09141 15.7711 3.40859 16.4719C2.22266 17.7117 0.875 19.1313 0.875 21C0.875 22.8687 2.22266 24.2883 3.40859 25.5281C4.09141 26.2289 4.79219 26.9656 5.06172 27.5945C5.33125 28.2234 5.31328 29.1578 5.33125 30.1102C5.34922 31.8531 5.38516 33.8477 6.76875 35.2313C8.15234 36.6148 10.1469 36.6508 11.8898 36.6688C12.8422 36.6867 13.8125 36.7047 14.4055 36.9383C14.9984 37.1719 15.7711 37.9086 16.4719 38.5914C17.7117 39.7773 19.1313 41.125 21 41.125C22.8687 41.125 24.2883 39.7773 25.5281 38.5914C26.2289 37.9086 26.9656 37.2078 27.5945 36.9383C28.2234 36.6688 29.1578 36.6867 30.1102 36.6688C31.8531 36.6508 33.8477 36.6148 35.2313 35.2313C36.6148 33.8477 36.6508 31.8531 36.6688 30.1102C36.6867 29.1578 36.7047 28.1875 36.9383 27.5945C37.1719 27.0016 37.9086 26.2289 38.5914 25.5281C39.7773 24.2883 41.125 22.8687 41.125 21C41.125 19.1313 39.7773 17.7117 38.5914 16.4719ZM29.8945 17.7297L19.3648 27.7922C19.0926 28.0483 18.7323 28.1898 18.3586 28.1875C17.9904 28.1889 17.636 28.0472 17.3703 27.7922L12.1055 22.7609C11.9594 22.6335 11.8407 22.4779 11.7563 22.3034C11.672 22.129 11.6238 21.9393 11.6146 21.7457C11.6055 21.5521 11.6355 21.3587 11.703 21.177C11.7705 20.9954 11.8741 20.8292 12.0074 20.6886C12.1408 20.548 12.3012 20.4358 12.479 20.3587C12.6568 20.2817 12.8484 20.2414 13.0422 20.2403C13.2359 20.2391 13.428 20.2772 13.6067 20.3522C13.7854 20.4272 13.9471 20.5375 14.082 20.6766L18.3586 24.7555L27.918 15.6453C28.1975 15.4015 28.5604 15.2751 28.9309 15.2926C29.3015 15.3101 29.6509 15.4702 29.9061 15.7394C30.1613 16.0085 30.3026 16.3659 30.3005 16.7369C30.2983 17.1078 30.1529 17.4635 29.8945 17.7297Z" fill="#00AC4F"/>
</svg>
