<svg width="27" height="31" viewBox="0 0 27 31" fill="none" xmlns="http://www.w3.org/2000/svg">
<path d="M17.884 20.8547C17.858 20.8185 17.8236 20.789 17.7839 20.7688C17.7441 20.7486 17.7001 20.7383 17.6555 20.7387H16.1016C15.873 20.7387 15.7395 20.9988 15.873 21.1852L18.4676 24.7746C18.5801 24.9293 18.8086 24.9293 18.9211 24.7746L22.9359 19.2199C23.0695 19.0336 22.9359 18.7734 22.7074 18.7734H21.15C21.0586 18.7734 20.9742 18.8156 20.9215 18.8895L18.6891 21.9762L17.884 20.8547ZM19.4062 8.08594V6.39844C19.4062 6.24375 19.2797 6.11719 19.125 6.11719H5.625C5.47031 6.11719 5.34375 6.24375 5.34375 6.39844V8.08594C5.34375 8.24063 5.47031 8.36719 5.625 8.36719H19.125C19.2797 8.36719 19.4062 8.24063 19.4062 8.08594ZM5.625 11.1797C5.47031 11.1797 5.34375 11.3062 5.34375 11.4609V13.1484C5.34375 13.3031 5.47031 13.4297 5.625 13.4297H12.0938C12.2484 13.4297 12.375 13.3031 12.375 13.1484V11.4609C12.375 11.3062 12.2484 11.1797 12.0938 11.1797H5.625ZM12.0938 27.2812H2.53125V2.53125H22.2188V12.9375C22.2188 13.0922 22.3453 13.2188 22.5 13.2188H24.4688C24.6234 13.2188 24.75 13.0922 24.75 12.9375V1.125C24.75 0.502734 24.2473 0 23.625 0H1.125C0.502734 0 0 0.502734 0 1.125V28.6875C0 29.3098 0.502734 29.8125 1.125 29.8125H12.0938C12.2484 29.8125 12.375 29.6859 12.375 29.5312V27.5625C12.375 27.4078 12.2484 27.2812 12.0938 27.2812ZM26.2477 16.0031L19.4977 13.6582C19.466 13.6477 19.4379 13.6441 19.4062 13.6441C19.3746 13.6441 19.343 13.6477 19.3148 13.6582L12.5648 16.0031C12.5097 16.0219 12.4618 16.0573 12.4277 16.1046C12.3937 16.1519 12.3753 16.2086 12.375 16.2668V25.0945C12.375 25.1824 12.4137 25.2633 12.484 25.316L19.234 30.5965C19.2832 30.6352 19.3465 30.6562 19.4062 30.6562C19.466 30.6562 19.5293 30.6352 19.5785 30.5965L26.3285 25.316C26.3953 25.2633 26.4375 25.1824 26.4375 25.0945V16.2668C26.4375 16.1473 26.3602 16.0418 26.2477 16.0031ZM24.2578 24.177L19.4062 27.9703L14.5547 24.177V17.6133L19.4062 15.9258L24.2578 17.6133V24.177Z" fill="url(#paint0_linear_1_463)"/>
<defs>
<linearGradient id="paint0_linear_1_463" x1="13.2188" y1="-4.70061e-07" x2="30.3044" y2="29.0587" gradientUnits="userSpaceOnUse">
<stop stop-color="#6744F2"/>
<stop offset="1" stop-color="#E8E2FF"/>
</linearGradient>
</defs>
</svg>
