<svg width="34" height="33" viewBox="0 0 34 33" fill="none" xmlns="http://www.w3.org/2000/svg">
<path d="M20.0153 21.1274C20.1454 20.0446 20.548 19.0124 21.1853 18.1274H15.1448V15.1274H27.1358C28.1701 15.1341 29.1914 15.3605 30.1328 15.7889V3.13041C30.133 2.73619 30.0555 2.3458 29.9047 1.98155C29.754 1.6173 29.5329 1.28634 29.2541 1.00759C28.9754 0.728833 28.6444 0.507751 28.2802 0.356982C27.9159 0.206212 27.5255 0.128711 27.1313 0.128908H3.13581C2.74147 0.128513 2.35092 0.205869 1.9865 0.356551C1.62207 0.507232 1.29094 0.728282 1.01202 1.00706C0.73311 1.28583 0.511894 1.61686 0.361031 1.9812C0.210168 2.34555 0.132617 2.73606 0.132814 3.13041V24.1274C0.132419 24.5219 0.209825 24.9126 0.3606 25.2771C0.511375 25.6416 0.732559 25.9728 1.01149 26.2517C1.29043 26.5307 1.62163 26.7518 1.98615 26.9026C2.35067 27.0534 2.74134 27.1308 3.13581 27.1304H18.1313V25.9289C18.1396 25.3076 18.2765 24.6947 18.5333 24.1289H9.13131V21.1289L20.0153 21.1274ZM27.1313 12.1274H15.1403V9.12741H27.1313V12.1274ZM9.13131 3.12741H27.1313V6.12741H9.13131V3.12741ZM6.11481 24.1274H3.11481V21.1274H6.11481V24.1274ZM6.11481 6.12741H3.11481V3.12741H6.11481V6.12741ZM9.12231 9.12741H12.1223V12.1274H9.12231V9.12741ZM9.12681 18.1274V15.1274H12.1268V18.1274H9.12681ZM31.3313 24.1289V21.8789C31.2141 20.8471 30.7212 19.8945 29.9466 19.2028C29.1719 18.5112 28.1698 18.1289 27.1313 18.1289C26.0928 18.1289 25.0907 18.5112 24.3161 19.2028C23.5414 19.8945 23.0485 20.8471 22.9313 21.8789V24.1289C22.4643 24.1605 22.0246 24.3603 21.6936 24.6912C21.3627 25.0222 21.1629 25.4619 21.1313 25.9289V31.1789C21.1333 31.6701 21.3192 32.1427 21.6524 32.5037C21.9856 32.8646 22.4418 33.0877 22.9313 33.1289H31.1813C31.6725 33.1269 32.1451 32.941 32.5061 32.6078C32.867 32.2746 33.0901 31.8184 33.1313 31.3289V26.0789C33.1293 25.5877 32.9434 25.1151 32.6102 24.7541C32.277 24.3932 31.8208 24.1701 31.3313 24.1289ZM29.3813 24.1289H24.8813V21.8789C24.8953 21.6011 24.9653 21.329 25.0872 21.079C25.209 20.829 25.3802 20.6062 25.5904 20.424C25.8006 20.2419 26.0455 20.1041 26.3103 20.019C26.5751 19.9339 26.8544 19.9033 27.1313 19.9289C27.4083 19.9033 27.6876 19.9339 27.9524 20.019C28.2172 20.1041 28.462 20.2419 28.6722 20.424C28.8824 20.6062 29.0536 20.829 29.1754 21.079C29.2973 21.329 29.3673 21.6011 29.3813 21.8789V24.1289Z" fill="url(#paint0_linear_1_455)"/>
<defs>
<linearGradient id="paint0_linear_1_455" x1="16.6321" y1="0.128906" x2="33.6113" y2="33.6133" gradientUnits="userSpaceOnUse">
<stop stop-color="#6744F2"/>
<stop offset="1" stop-color="#E8E2FF"/>
</linearGradient>
</defs>
</svg>
