<svg width="172" height="18" viewBox="0 0 172 18" fill="none" xmlns="http://www.w3.org/2000/svg">
<path d="M0 14.48H14V0.48H0V14.48ZM24.377 5.9929C24.3239 5.52225 24.1052 5.15767 23.7207 4.89915C23.3362 4.63731 22.8523 4.50639 22.269 4.50639C21.8514 4.50639 21.4901 4.57268 21.1852 4.70526C20.8803 4.83452 20.6433 5.01349 20.4743 5.24219C20.3085 5.46757 20.2257 5.72443 20.2257 6.01278C20.2257 6.25473 20.282 6.46354 20.3947 6.6392C20.5107 6.81487 20.6615 6.96236 20.8471 7.08168C21.036 7.19768 21.2382 7.29545 21.4537 7.375C21.6691 7.45123 21.8762 7.5142 22.0751 7.56392L23.0694 7.82244C23.3942 7.90199 23.7273 8.00971 24.0687 8.1456C24.4101 8.28149 24.7266 8.46046 25.0183 8.68253C25.31 8.90459 25.5453 9.17969 25.7243 9.50781C25.9065 9.83594 25.9977 10.2287 25.9977 10.6861C25.9977 11.2628 25.8485 11.7749 25.5502 12.2223C25.2553 12.6697 24.8261 13.0227 24.2626 13.2812C23.7025 13.5398 23.0247 13.669 22.2292 13.669C21.4669 13.669 20.8074 13.5481 20.2505 13.3061C19.6937 13.0642 19.2579 12.7211 18.943 12.277C18.6281 11.8295 18.4541 11.2992 18.421 10.6861H19.9622C19.992 11.054 20.1113 11.3606 20.3201 11.6058C20.5323 11.8478 20.8024 12.0284 21.1305 12.1477C21.4619 12.2637 21.8249 12.3217 22.2193 12.3217C22.6535 12.3217 23.0396 12.2538 23.3777 12.1179C23.719 11.9787 23.9875 11.7865 24.1831 11.5412C24.3786 11.2926 24.4764 11.0026 24.4764 10.6712C24.4764 10.3696 24.3902 10.1226 24.2179 9.9304C24.0488 9.73816 23.8185 9.57907 23.5268 9.45312C23.2385 9.32718 22.912 9.21615 22.5474 9.12003L21.3443 8.7919C20.5289 8.56984 19.8826 8.24337 19.4054 7.8125C18.9314 7.38163 18.6944 6.81155 18.6944 6.10227C18.6944 5.51562 18.8535 5.00355 19.1717 4.56605C19.4899 4.12855 19.9208 3.78883 20.4643 3.54688C21.0079 3.30161 21.621 3.17898 22.3038 3.17898C22.9932 3.17898 23.6014 3.29995 24.1284 3.5419C24.6587 3.78385 25.0763 4.11695 25.3812 4.54119C25.6861 4.96212 25.8452 5.44602 25.8585 5.9929H24.377ZM31.0053 13.6541C30.253 13.6541 29.605 13.4934 29.0614 13.1719C28.5212 12.8471 28.1036 12.3913 27.8086 11.8047C27.5169 11.2147 27.3711 10.5237 27.3711 9.73153C27.3711 8.94934 27.5169 8.25994 27.8086 7.66335C28.1036 7.06676 28.5146 6.60109 29.0415 6.26633C29.5719 5.93158 30.1916 5.7642 30.9009 5.7642C31.3318 5.7642 31.7494 5.83546 32.1538 5.97798C32.5581 6.1205 32.921 6.34422 33.2425 6.64915C33.564 6.95407 33.8176 7.35014 34.0032 7.83736C34.1888 8.32126 34.2816 8.90956 34.2816 9.60227V10.1293H28.2113V9.01562H32.8249C32.8249 8.62453 32.7454 8.27817 32.5863 7.97656C32.4272 7.67164 32.2035 7.43134 31.9151 7.25568C31.6301 7.08002 31.2953 6.99219 30.9109 6.99219C30.4933 6.99219 30.1287 7.09493 29.8171 7.30043C29.5089 7.5026 29.2702 7.76776 29.1012 8.09588C28.9355 8.42069 28.8526 8.77367 28.8526 9.15483V10.0249C28.8526 10.5353 28.9421 10.9695 29.1211 11.3274C29.3034 11.6854 29.5569 11.9588 29.8817 12.1477C30.2066 12.3333 30.5861 12.4261 31.0202 12.4261C31.302 12.4261 31.5588 12.3864 31.7908 12.3068C32.0228 12.224 32.2234 12.1013 32.3924 11.9389C32.5614 11.7765 32.6907 11.576 32.7802 11.3374L34.1871 11.5909C34.0745 12.0052 33.8723 12.3681 33.5806 12.6797C33.2923 12.9879 32.9293 13.2282 32.4918 13.4006C32.0576 13.5696 31.5621 13.6541 31.0053 13.6541ZM37.4174 8.96591V13.5H35.9309V5.86364H37.3578V7.10653H37.4522C37.6279 6.70218 37.903 6.37737 38.2775 6.1321C38.6554 5.88684 39.131 5.7642 39.7044 5.7642C40.2247 5.7642 40.6805 5.87358 41.0716 6.09233C41.4627 6.30777 41.7659 6.62926 41.9814 7.05682C42.1968 7.48437 42.3045 8.01302 42.3045 8.64276V13.5H40.818V8.82173C40.818 8.26823 40.6738 7.8357 40.3855 7.52415C40.0971 7.20928 39.7011 7.05185 39.1973 7.05185C38.8526 7.05185 38.546 7.12642 38.2775 7.27557C38.0124 7.42472 37.8019 7.64347 37.6461 7.93182C37.4937 8.21686 37.4174 8.56155 37.4174 8.96591ZM44.2981 13.5V5.86364H45.7846V13.5H44.2981ZM45.0488 4.68537C44.7903 4.68537 44.5682 4.59919 44.3826 4.42685C44.2003 4.25118 44.1092 4.04238 44.1092 3.80043C44.1092 3.55516 44.2003 3.34635 44.3826 3.17401C44.5682 2.99834 44.7903 2.91051 45.0488 2.91051C45.3074 2.91051 45.5278 2.99834 45.71 3.17401C45.8957 3.34635 45.9885 3.55516 45.9885 3.80043C45.9885 4.04238 45.8957 4.25118 45.71 4.42685C45.5278 4.59919 45.3074 4.68537 45.0488 4.68537ZM51.0011 13.6541C50.2852 13.6541 49.6604 13.4901 49.1268 13.1619C48.5932 12.8338 48.1789 12.3748 47.8839 11.7848C47.5889 11.1948 47.4414 10.5054 47.4414 9.71662C47.4414 8.92448 47.5889 8.23177 47.8839 7.63849C48.1789 7.04522 48.5932 6.58452 49.1268 6.25639C49.6604 5.92827 50.2852 5.7642 51.0011 5.7642C51.717 5.7642 52.3417 5.92827 52.8754 6.25639C53.409 6.58452 53.8233 7.04522 54.1183 7.63849C54.4132 8.23177 54.5607 8.92448 54.5607 9.71662C54.5607 10.5054 54.4132 11.1948 54.1183 11.7848C53.8233 12.3748 53.409 12.8338 52.8754 13.1619C52.3417 13.4901 51.717 13.6541 51.0011 13.6541ZM51.006 12.4062C51.4701 12.4062 51.8545 12.2836 52.1594 12.0384C52.4644 11.7931 52.6897 11.4666 52.8356 11.0589C52.9847 10.6513 53.0593 10.2022 53.0593 9.71165C53.0593 9.22443 52.9847 8.77699 52.8356 8.36932C52.6897 7.95833 52.4644 7.62855 52.1594 7.37997C51.8545 7.13139 51.4701 7.0071 51.006 7.0071C50.5387 7.0071 50.1509 7.13139 49.8427 7.37997C49.5378 7.62855 49.3107 7.95833 49.1616 8.36932C49.0157 8.77699 48.9428 9.22443 48.9428 9.71165C48.9428 10.2022 49.0157 10.6513 49.1616 11.0589C49.3107 11.4666 49.5378 11.7931 49.8427 12.0384C50.1509 12.2836 50.5387 12.4062 51.006 12.4062ZM56.22 13.5V5.86364H57.6568V7.0767H57.7363C57.8755 6.66572 58.1208 6.34257 58.4721 6.10724C58.8268 5.86861 59.2278 5.74929 59.6752 5.74929C59.7681 5.74929 59.8774 5.7526 60.0034 5.75923C60.1326 5.76586 60.2337 5.77415 60.3066 5.78409V7.20597C60.247 7.18939 60.1409 7.17116 59.9885 7.15128C59.836 7.12808 59.6835 7.11648 59.5311 7.11648C59.1797 7.11648 58.8665 7.19105 58.5914 7.3402C58.3197 7.48603 58.1042 7.68987 57.9451 7.9517C57.786 8.21023 57.7065 8.50521 57.7065 8.83665V13.5H56.22ZM65.4174 13.5V3.31818H69.0467C69.8388 3.31818 70.4951 3.46236 71.0154 3.75071C71.5358 4.03906 71.9252 4.43347 72.1838 4.93395C72.4423 5.43111 72.5716 5.99124 72.5716 6.61435C72.5716 7.24077 72.4406 7.80421 72.1788 8.30469C71.9203 8.80185 71.5292 9.19626 71.0055 9.48793C70.4851 9.77628 69.8306 9.92045 69.0417 9.92045H66.546V8.6179H68.9025C69.403 8.6179 69.809 8.53172 70.1206 8.35938C70.4321 8.18371 70.6608 7.94508 70.8066 7.64347C70.9525 7.34186 71.0254 6.99882 71.0254 6.61435C71.0254 6.22988 70.9525 5.88849 70.8066 5.5902C70.6608 5.2919 70.4305 5.05824 70.1156 4.8892C69.804 4.72017 69.3931 4.63565 68.8826 4.63565H66.9537V13.5H65.4174ZM77.3741 13.6541C76.6582 13.6541 76.0334 13.4901 75.4998 13.1619C74.9662 12.8338 74.5519 12.3748 74.2569 11.7848C73.9619 11.1948 73.8145 10.5054 73.8145 9.71662C73.8145 8.92448 73.9619 8.23177 74.2569 7.63849C74.5519 7.04522 74.9662 6.58452 75.4998 6.25639C76.0334 5.92827 76.6582 5.7642 77.3741 5.7642C78.09 5.7642 78.7148 5.92827 79.2484 6.25639C79.782 6.58452 80.1963 7.04522 80.4913 7.63849C80.7863 8.23177 80.9338 8.92448 80.9338 9.71662C80.9338 10.5054 80.7863 11.1948 80.4913 11.7848C80.1963 12.3748 79.782 12.8338 79.2484 13.1619C78.7148 13.4901 78.09 13.6541 77.3741 13.6541ZM77.3791 12.4062C77.8431 12.4062 78.2276 12.2836 78.5325 12.0384C78.8374 11.7931 79.0628 11.4666 79.2086 11.0589C79.3578 10.6513 79.4324 10.2022 79.4324 9.71165C79.4324 9.22443 79.3578 8.77699 79.2086 8.36932C79.0628 7.95833 78.8374 7.62855 78.5325 7.37997C78.2276 7.13139 77.8431 7.0071 77.3791 7.0071C76.9118 7.0071 76.524 7.13139 76.2157 7.37997C75.9108 7.62855 75.6838 7.95833 75.5346 8.36932C75.3888 8.77699 75.3159 9.22443 75.3159 9.71165C75.3159 10.2022 75.3888 10.6513 75.5346 11.0589C75.6838 11.4666 75.9108 11.7931 76.2157 12.0384C76.524 12.2836 76.9118 12.4062 77.3791 12.4062ZM85.8097 13.6541C85.0938 13.6541 84.469 13.4901 83.9354 13.1619C83.4018 12.8338 82.9875 12.3748 82.6925 11.7848C82.3975 11.1948 82.25 10.5054 82.25 9.71662C82.25 8.92448 82.3975 8.23177 82.6925 7.63849C82.9875 7.04522 83.4018 6.58452 83.9354 6.25639C84.469 5.92827 85.0938 5.7642 85.8097 5.7642C86.5256 5.7642 87.1503 5.92827 87.6839 6.25639C88.2176 6.58452 88.6319 7.04522 88.9268 7.63849C89.2218 8.23177 89.3693 8.92448 89.3693 9.71662C89.3693 10.5054 89.2218 11.1948 88.9268 11.7848C88.6319 12.3748 88.2176 12.8338 87.6839 13.1619C87.1503 13.4901 86.5256 13.6541 85.8097 13.6541ZM85.8146 12.4062C86.2786 12.4062 86.6631 12.2836 86.968 12.0384C87.273 11.7931 87.4983 11.4666 87.6442 11.0589C87.7933 10.6513 87.8679 10.2022 87.8679 9.71165C87.8679 9.22443 87.7933 8.77699 87.6442 8.36932C87.4983 7.95833 87.273 7.62855 86.968 7.37997C86.6631 7.13139 86.2786 7.0071 85.8146 7.0071C85.3473 7.0071 84.9595 7.13139 84.6513 7.37997C84.3464 7.62855 84.1193 7.95833 83.9702 8.36932C83.8243 8.77699 83.7514 9.22443 83.7514 9.71165C83.7514 10.2022 83.8243 10.6513 83.9702 11.0589C84.1193 11.4666 84.3464 11.7931 84.6513 12.0384C84.9595 12.2836 85.3473 12.4062 85.8146 12.4062ZM92.5151 3.31818V13.5H91.0286V3.31818H92.5151ZM99.1994 13.5H97.5687L101.233 3.31818H103.008L106.672 13.5H105.041L102.162 5.16761H102.083L99.1994 13.5ZM99.4728 9.51278H104.763V10.8054H99.4728V9.51278ZM111.101 16.5227C110.495 16.5227 109.973 16.4432 109.535 16.2841C109.101 16.125 108.747 15.9145 108.471 15.6527C108.196 15.3909 107.991 15.1042 107.855 14.7926L109.133 14.2656C109.222 14.4115 109.341 14.5656 109.491 14.728C109.643 14.8937 109.849 15.0346 110.107 15.1506C110.369 15.2666 110.705 15.3246 111.116 15.3246C111.68 15.3246 112.145 15.187 112.513 14.9119C112.881 14.6402 113.065 14.206 113.065 13.6094V12.108H112.971C112.881 12.2704 112.752 12.451 112.583 12.6499C112.417 12.8487 112.189 13.0211 111.897 13.1669C111.605 13.3127 111.226 13.3857 110.758 13.3857C110.155 13.3857 109.612 13.2448 109.128 12.9631C108.647 12.678 108.266 12.2588 107.984 11.7053C107.706 11.1484 107.567 10.464 107.567 9.65199C107.567 8.83996 107.704 8.14394 107.979 7.56392C108.258 6.9839 108.639 6.53977 109.123 6.23153C109.607 5.91998 110.155 5.7642 110.768 5.7642C111.242 5.7642 111.625 5.84375 111.917 6.00284C112.208 6.15862 112.435 6.34091 112.598 6.54972C112.764 6.75852 112.891 6.94247 112.981 7.10156H113.09V5.86364H114.547V13.669C114.547 14.3253 114.394 14.8639 114.089 15.2848C113.784 15.7057 113.372 16.0173 112.851 16.2195C112.334 16.4216 111.751 16.5227 111.101 16.5227ZM111.086 12.1527C111.514 12.1527 111.875 12.0533 112.17 11.8544C112.469 11.6522 112.694 11.3639 112.846 10.9893C113.002 10.6115 113.08 10.1591 113.08 9.6321C113.08 9.11837 113.004 8.66596 112.851 8.27486C112.699 7.88376 112.475 7.57884 112.18 7.36009C111.885 7.13802 111.521 7.02699 111.086 7.02699C110.639 7.02699 110.266 7.14299 109.968 7.375C109.67 7.60369 109.444 7.91525 109.292 8.30966C109.143 8.70407 109.068 9.14489 109.068 9.6321C109.068 10.1326 109.144 10.5717 109.297 10.9496C109.449 11.3274 109.675 11.6224 109.973 11.8345C110.274 12.0466 110.646 12.1527 111.086 12.1527ZM116.54 13.5V5.86364H117.977V7.0767H118.057C118.196 6.66572 118.441 6.34257 118.792 6.10724C119.147 5.86861 119.548 5.74929 119.996 5.74929C120.088 5.74929 120.198 5.7526 120.324 5.75923C120.453 5.76586 120.554 5.77415 120.627 5.78409V7.20597C120.567 7.18939 120.461 7.17116 120.309 7.15128C120.156 7.12808 120.004 7.11648 119.851 7.11648C119.5 7.11648 119.187 7.19105 118.912 7.3402C118.64 7.48603 118.425 7.68987 118.265 7.9517C118.106 8.21023 118.027 8.50521 118.027 8.83665V13.5H116.54ZM124.931 13.6541C124.179 13.6541 123.531 13.4934 122.987 13.1719C122.447 12.8471 122.029 12.3913 121.734 11.8047C121.443 11.2147 121.297 10.5237 121.297 9.73153C121.297 8.94934 121.443 8.25994 121.734 7.66335C122.029 7.06676 122.44 6.60109 122.967 6.26633C123.498 5.93158 124.117 5.7642 124.827 5.7642C125.258 5.7642 125.675 5.83546 126.08 5.97798C126.484 6.1205 126.847 6.34422 127.168 6.64915C127.49 6.95407 127.743 7.35014 127.929 7.83736C128.115 8.32126 128.207 8.90956 128.207 9.60227V10.1293H122.137V9.01562H126.751C126.751 8.62453 126.671 8.27817 126.512 7.97656C126.353 7.67164 126.129 7.43134 125.841 7.25568C125.556 7.08002 125.221 6.99219 124.837 6.99219C124.419 6.99219 124.054 7.09493 123.743 7.30043C123.435 7.5026 123.196 7.76776 123.027 8.09588C122.861 8.42069 122.778 8.77367 122.778 9.15483V10.0249C122.778 10.5353 122.868 10.9695 123.047 11.3274C123.229 11.6854 123.483 11.9588 123.808 12.1477C124.132 12.3333 124.512 12.4261 124.946 12.4261C125.228 12.4261 125.485 12.3864 125.717 12.3068C125.949 12.224 126.149 12.1013 126.318 11.9389C126.487 11.7765 126.616 11.576 126.706 11.3374L128.113 11.5909C128 12.0052 127.798 12.3681 127.506 12.6797C127.218 12.9879 126.855 13.2282 126.418 13.4006C125.983 13.5696 125.488 13.6541 124.931 13.6541ZM133.148 13.6541C132.396 13.6541 131.748 13.4934 131.204 13.1719C130.664 12.8471 130.246 12.3913 129.951 11.8047C129.66 11.2147 129.514 10.5237 129.514 9.73153C129.514 8.94934 129.66 8.25994 129.951 7.66335C130.246 7.06676 130.657 6.60109 131.184 6.26633C131.714 5.93158 132.334 5.7642 133.044 5.7642C133.474 5.7642 133.892 5.83546 134.296 5.97798C134.701 6.1205 135.064 6.34422 135.385 6.64915C135.707 6.95407 135.96 7.35014 136.146 7.83736C136.331 8.32126 136.424 8.90956 136.424 9.60227V10.1293H130.354V9.01562H134.968C134.968 8.62453 134.888 8.27817 134.729 7.97656C134.57 7.67164 134.346 7.43134 134.058 7.25568C133.773 7.08002 133.438 6.99219 133.053 6.99219C132.636 6.99219 132.271 7.09493 131.96 7.30043C131.651 7.5026 131.413 7.76776 131.244 8.09588C131.078 8.42069 130.995 8.77367 130.995 9.15483V10.0249C130.995 10.5353 131.085 10.9695 131.264 11.3274C131.446 11.6854 131.7 11.9588 132.024 12.1477C132.349 12.3333 132.729 12.4261 133.163 12.4261C133.445 12.4261 133.701 12.3864 133.933 12.3068C134.165 12.224 134.366 12.1013 134.535 11.9389C134.704 11.7765 134.833 11.576 134.923 11.3374L136.33 11.5909C136.217 12.0052 136.015 12.3681 135.723 12.6797C135.435 12.9879 135.072 13.2282 134.634 13.4006C134.2 13.5696 133.705 13.6541 133.148 13.6541ZM138.074 13.5V5.86364H139.5V7.10653H139.595C139.754 6.68561 140.014 6.35748 140.375 6.12216C140.737 5.88352 141.169 5.7642 141.673 5.7642C142.183 5.7642 142.611 5.88352 142.956 6.12216C143.304 6.3608 143.56 6.68892 143.726 7.10653H143.806C143.988 6.69886 144.278 6.37405 144.676 6.1321C145.074 5.88684 145.547 5.7642 146.098 5.7642C146.79 5.7642 147.355 5.9813 147.793 6.41548C148.234 6.84967 148.454 7.50426 148.454 8.37926V13.5H146.968V8.51847C146.968 8.00142 146.827 7.62689 146.545 7.39489C146.263 7.16288 145.927 7.04688 145.536 7.04688C145.052 7.04688 144.676 7.19602 144.407 7.49432C144.139 7.7893 144.005 8.1688 144.005 8.63281V13.5H142.523V8.42401C142.523 8.00971 142.394 7.67661 142.135 7.42472C141.877 7.17282 141.54 7.04688 141.126 7.04688C140.844 7.04688 140.584 7.12145 140.346 7.2706C140.11 7.41643 139.92 7.62026 139.774 7.8821C139.631 8.14394 139.56 8.44721 139.56 8.7919V13.5H138.074ZM153.738 13.6541C152.985 13.6541 152.337 13.4934 151.794 13.1719C151.254 12.8471 150.836 12.3913 150.541 11.8047C150.249 11.2147 150.104 10.5237 150.104 9.73153C150.104 8.94934 150.249 8.25994 150.541 7.66335C150.836 7.06676 151.247 6.60109 151.774 6.26633C152.304 5.93158 152.924 5.7642 153.633 5.7642C154.064 5.7642 154.482 5.83546 154.886 5.97798C155.291 6.1205 155.653 6.34422 155.975 6.64915C156.296 6.95407 156.55 7.35014 156.736 7.83736C156.921 8.32126 157.014 8.90956 157.014 9.60227V10.1293H150.944V9.01562H155.557C155.557 8.62453 155.478 8.27817 155.319 7.97656C155.16 7.67164 154.936 7.43134 154.648 7.25568C154.363 7.08002 154.028 6.99219 153.643 6.99219C153.226 6.99219 152.861 7.09493 152.55 7.30043C152.241 7.5026 152.003 7.76776 151.834 8.09588C151.668 8.42069 151.585 8.77367 151.585 9.15483V10.0249C151.585 10.5353 151.675 10.9695 151.854 11.3274C152.036 11.6854 152.289 11.9588 152.614 12.1477C152.939 12.3333 153.318 12.4261 153.753 12.4261C154.034 12.4261 154.291 12.3864 154.523 12.3068C154.755 12.224 154.956 12.1013 155.125 11.9389C155.294 11.7765 155.423 11.576 155.513 11.3374L156.92 11.5909C156.807 12.0052 156.605 12.3681 156.313 12.6797C156.025 12.9879 155.662 13.2282 155.224 13.4006C154.79 13.5696 154.295 13.6541 153.738 13.6541ZM160.15 8.96591V13.5H158.663V5.86364H160.09V7.10653H160.185C160.36 6.70218 160.635 6.37737 161.01 6.1321C161.388 5.88684 161.863 5.7642 162.437 5.7642C162.957 5.7642 163.413 5.87358 163.804 6.09233C164.195 6.30777 164.498 6.62926 164.714 7.05682C164.929 7.48437 165.037 8.01302 165.037 8.64276V13.5H163.55V8.82173C163.55 8.26823 163.406 7.8357 163.118 7.52415C162.83 7.20928 162.433 7.05185 161.93 7.05185C161.585 7.05185 161.278 7.12642 161.01 7.27557C160.745 7.42472 160.534 7.64347 160.379 7.93182C160.226 8.21686 160.15 8.56155 160.15 8.96591ZM170.595 5.86364V7.05682H166.424V5.86364H170.595ZM167.543 4.03409H169.029V11.2578C169.029 11.5462 169.072 11.7633 169.158 11.9091C169.245 12.0516 169.356 12.1494 169.491 12.2024C169.631 12.2521 169.781 12.277 169.944 12.277C170.063 12.277 170.168 12.2687 170.257 12.2521C170.347 12.2356 170.416 12.2223 170.466 12.2124L170.734 13.4403C170.648 13.4735 170.526 13.5066 170.366 13.5398C170.207 13.5762 170.009 13.5961 169.77 13.5994C169.379 13.6061 169.014 13.5365 168.676 13.3906C168.338 13.2448 168.065 13.0194 167.856 12.7145C167.647 12.4096 167.543 12.0268 167.543 11.5661V4.03409Z" fill="#3D3D3D"/>
<path d="M0 16.2841H171.237V17.2386H0V16.2841Z" fill="#3D3D3D"/>
</svg>
